<svg xmlns="http://www.w3.org/2000/svg" xmlns:xlink="http://www.w3.org/1999/xlink" viewBox="0 0 1000.31 173.71"><defs><style>.cls-1{fill:#232323;}.cls-2{fill:#fff;stroke:#000;stroke-miterlimit:10;}.cls-3{fill:url(#linear-gradient);}</style><linearGradient id="linear-gradient" x1="498.59" y1="166.43" x2="498.59" y2="38.65" gradientUnits="userSpaceOnUse"><stop offset="0" stop-color="#0071bc"/><stop offset="0.11" stop-color="#2755a4"/><stop offset="0.23" stop-color="#4b3b8f"/><stop offset="0.36" stop-color="#69267d"/><stop offset="0.49" stop-color="#81156f"/><stop offset="0.64" stop-color="#910965"/><stop offset="0.79" stop-color="#9b025f"/><stop offset="1" stop-color="#9e005d"/></linearGradient></defs><g id="Layer_2" data-name="Layer 2"><g id="subtitle"><g id="Layer_10" data-name="Layer 10"><path d="M1000.31,26.88,955.08,0,849.52.15l-.3,2.32L846.29.15,793.68.23l0,.39-.42-.39L740,.31l-.16,1.85L738.28.31l-54,.07-.06.77-.48-.77L575.43.54l-.35,12.76h-7.91L565,.55,468.41.69h0L363.61.84h0L258.11,1l-1.65,1.72L256.29,1l-52,.07-.46.41,0-.41-51.35.08-2.82,2.07-.3-2.07L46.74,1.29,0,27.74,28,172.33l106.41.16,23-24.86h2.84l3.44,24.9,54.16.08,24.83-34.21,3.58,34.25,110.39.16h0l109.63.16h0l101.4.15.22-12.48h8.75l2.24,12.49,113.47.16h0l56.78.09,4.2-45.64.62.92-.68,6.78,24.78,38,55.53.08,3.19-25.21H842l21.64,25.25,109.72.16,7.18-39.15-14-11.93h2.08L975.88,82,959.06,69.4h33.45Z"/><polygon points="58.21 62.58 71.96 140.28 104.3 111.77 92.52 39.12 58.21 62.58"/><polygon points="109.86 35.54 130 165.22 157.84 135.14 140.6 13.89 109.86 35.54"/><polygon points="168.59 35.48 175.69 89.01 200.95 63.74 194.88 13.81 168.59 35.48"/><polygon points="247.25 13.73 225.27 35.42 232.43 99.98 220.34 114.98 221.53 125.23 209.69 140.41 212.73 165.34 234.59 135.21 233.63 126.56 244.6 111.84 243.61 102.58 254.79 88.01 247.25 13.73"/><polygon points="348.16 140.55 349.81 165.54 361.72 135.32 360.3 111.89 348.16 140.55"/><polygon points="291.29 115.02 293.53 140.49 309.69 111.86 307.76 88.01 291.29 115.02"/><polygon points="330.8 89.01 332.66 115.04 346.07 88.01 344.47 63.68 330.8 89.01"/><polygon points="303.8 38.92 286.66 62.47 289 89.01 305.8 63.7 303.8 38.92"/><polygon points="355.88 38.87 354.35 13.58 341.2 35.3 342.99 62.44 355.88 38.87"/><polygon points="403.91 115.08 406.1 165.62 413.91 135.36 412.03 88.01 403.91 115.08"/><polygon points="459.05 102.13 460.41 165.7 464.25 135.41 463.09 75.88 459.05 102.13"/><polygon points="444.77 89.01 445.12 102.12 450.2 75.88 449.9 63.63 444.77 89.01"/><polygon points="410.08 38.82 401.63 62.41 402.78 89.01 411.06 63.65 410.08 38.82"/><polygon points="461.87 13.43 457.63 35.19 458.77 89.01 462.85 63.62 461.87 13.43"/><polygon points="858.29 12.87 842.09 135.74 868.26 166.29 887.22 34.76 858.29 12.87"/><polygon points="775 115.26 762.66 98.14 768.9 34.87 749.15 13.02 742.39 88.01 753.77 104.69 753.07 112.06 764.25 128.84 763.56 135.67 783.46 166.17 786.22 140.98 774.12 123.73 775 115.26"/><polygon points="797.05 63.47 820.32 89.02 826.87 34.82 802.63 12.95 797.05 63.47"/><polygon points="685.17 135.6 698.82 166.04 708.71 34.94 693.62 13.1 685.17 135.6"/><polygon points="632.45 135.56 641.91 165.96 644.57 115.2 634.73 88.01 632.45 135.56"/><polygon points="635.9 63.54 645.94 89.01 647.33 62.29 637.09 38.61 635.9 63.54"/><polygon points="581.78 135.51 587.23 165.88 591.17 35.05 585.16 13.26 581.78 135.51"/><polygon points="529.42 111.96 530.74 140.73 531.3 62.34 529.9 38.71 529.42 111.96"/><polygon class="cls-1" points="71.96 140.28 85.49 140.29 116.84 111.78 104.3 111.77 71.96 140.28"/><polygon class="cls-1" points="140.6 13.89 49.38 14.02 11.18 35.64 109.86 35.54 140.6 13.89"/><polygon class="cls-1" points="175.69 89.01 189.57 89.01 213.79 63.74 200.95 63.74 175.69 89.01"/><polygon class="cls-1" points="155.67 13.87 126.17 35.52 168.59 35.48 194.88 13.81 155.67 13.87"/><polygon class="cls-1" points="207.97 13.79 182.76 35.46 225.27 35.42 247.25 13.73 207.97 13.79"/><polygon class="cls-1" points="293.53 140.49 348.16 140.55 360.3 111.89 309.69 111.86 293.53 140.49"/><polygon class="cls-1" points="344.47 63.68 305.8 63.7 289 89.01 330.8 89.01 344.47 63.68"/><polygon class="cls-1" points="354.35 13.58 262.39 13.71 241.65 35.41 341.2 35.3 354.35 13.58"/><polygon class="cls-1" points="445.12 102.12 459.05 102.13 463.09 75.88 450.2 75.88 445.12 102.12"/><polygon class="cls-1" points="402.78 89.01 416.77 89.01 424 63.64 411.06 63.65 402.78 89.01"/><polygon class="cls-1" points="461.87 13.43 369.54 13.56 357.64 35.29 457.63 35.19 461.87 13.43"/><polygon class="cls-1" points="883.94 112.12 913.77 141.1 969.68 141.16 935.66 112.14 883.94 112.12"/><polygon class="cls-1" points="922.15 89.02 964.96 89.02 930.64 63.4 891.11 63.42 922.15 89.02"/><polygon class="cls-1" points="989.22 34.65 952.34 12.74 858.29 12.87 887.22 34.76 989.22 34.65"/><polygon class="cls-1" points="783.92 63.47 806.12 89.02 820.32 89.02 797.05 63.47 783.92 63.47"/><polygon class="cls-1" points="789.25 12.97 749.15 13.02 768.9 34.87 812.36 34.83 789.25 12.97"/><polygon class="cls-1" points="802.63 12.95 826.87 34.82 870.44 34.77 842.82 12.89 802.63 12.95"/><polygon class="cls-1" points="693.62 13.1 708.71 34.94 752.08 34.89 733.64 13.05 693.62 13.1"/><polygon class="cls-1" points="661.28 75.83 673.34 102.18 687.4 102.18 674.29 75.82 661.28 75.83"/><polygon class="cls-1" points="622.86 63.55 631.83 89.01 645.94 89.01 635.9 63.54 622.86 63.55"/><polygon class="cls-1" points="585.16 13.26 591.17 35.05 692.04 34.95 678.25 13.13 585.16 13.26"/><polygon class="cls-1" points="516.67 111.96 516.97 140.71 530.74 140.73 529.42 111.96 516.67 111.96"/><polygon class="cls-1" points="558.7 26.05 556.58 13.3 477.13 13.41 474.16 35.17 557.79 35.09 559.96 48.78 574.26 48.77 569.57 26.04 558.7 26.05"/><path class="cls-2" d="M11.18,35.64l98.68-.1L130,165.22l-93.79-.14ZM85.49,140.29,72.15,62.57H58.21L72,140.28H85.49M182.76,35.46,189.57,89H175.69l-7.1-53.53-42.42,0L138,114.94h13.7l3.65,25.41h13.58l3.44,24.91,40.36.06-3-24.93H223.3l-3-25.44h13.75l-8.82-79.57Zm58.89-.06,13.59,130,94.57.14-1.65-25-54.63-.06L291.29,115l41.37,0L330.8,89H289l-2.34-26.54,56.33,0L341.2,35.3ZM458.77,89h-14l.35,13.11h13.93l1.36,63.58-40.74-.06-1.91-50.56H403.91l2.19,50.54-40.66-.06-7.8-130.27,100-.1Zm-42,0-1-26.61H401.63L402.78,89h14M887.22,34.76l-19,131.53,96.79.14,4.64-25.27-55.92-.06,4.14-25.77,42.37,0L965,89H922.15l4.32-26.87,57.71,0,5-27.47Zm-60.35.06L820.32,89h-14.2l6.24-54.18-43.46,0L761,115.26h14L772.32,141l13.9,0-2.76,25.19,41.3.06L828,141h13.93l3.4-25.73h14.08l11.08-80.53Zm-118.16.11L698.82,166l41.18.06L752.08,34.89ZM688.31,89H674.18l-.84,13.17H687.4L683,166,641.91,166l2.66-50.76h-14l-2.37,50.75-41-.06,3.94-130.83L692,35Zm-42.37,0,1.39-26.72H633.08L631.83,89h14.11M560,48.78h14.3l-2.49,104.6H558.05l-.22,12.48-81.72-.12L474.16,35.17l86.05-.09Zm-29.22,91.95.56-78.38H517.1L517,140.71l13.77,0"/><path class="cls-3" d="M855.91,115.3H845.28l-.27,2h-1.73l-.27,2h-1.73L838.41,141H828l-.25,2H826l-.25,2H824l-2.68,21.2-37.81-.05L786.22,141l-13.9,0,2.68-25.7H761l7.53-76.39,39.86,0L802.12,93h14.2l.24-2h1.76l.24-2h1.76l6.07-50.21,40.05,0ZM698.82,166l37.55.06L748.08,38.89l-39.67,0ZM985.22,38.65l-98.58.1L868.26,166.29l93.52.14,3.91-21.27-55.92-.06,4.14-25.77h1.68l.32-2h1.68l.32-2,39.08,0L961,93H918.15l4.32-26.87h1.68l.32-2h1.68l.32-2,54.44,0ZM688,39,684.59,89H674.18l-.13,2h-1.87l-.13,2h-1.87l-.84,13.17H683.4L679.28,166,641.91,166l2.66-50.76h-14l-.1,2h-1.9l-.1,2h-1.9l-2.19,46.75-37.19-.06,3.82-126.83ZM647.33,62.29H633.08l-.09,2h-1.91l-.09,2h-1.91L627.83,93h14.11l.1-2h1.9l.1-2h1.9ZM12,39.63l93.91-.09,19.51,125.67-89.17-.13ZM56.56,66.58H54.21L68,144.28H81.49l-.35-2h2.35l-.35-2h2.35L72.15,62.57H58.21l.35,2H56.21ZM337.2,39.3l-95.13.1,13.17,126,90.31.13-1.39-21-54.63-.06L287.29,119h2.17l-.17-2h2.17l-.17-2,37.09,0L326.8,93H285l-2.34-26.54h2.18l-.18-2h2.18l-.18-2,52.07,0ZM567.87,153.37h-9.82l0,2h-2l0,2h-2l-.15,8.47-77.79-.11L474.22,39.17l82-.09L556,52.78h14.3Zm-36.57-91H517.1v2h-2v2h-2L513,144.71l13.77,0v-2h2v-2h2Zm-310-22.93-38,0L189.57,89h-2.26l.26,2h-2.26l.26,2H171.69l-7.1-53.53-37.82,0L138,114.94h13.7l3.65,25.41h13.58l3.44,24.91,35.87.05-2.55-20.92h2.25l-.25-2h2.25l-.25-2h9.15L216.34,119h2.24l-.24-2h2.24l-.24-2h9.3ZM456.32,165.69l-36.65-.05-1.91-50.56H403.91l.09,2h-2.09l.09,2h-2.09l2,46.53-36.49-.05L357.88,39.28l95.75-.09L454.69,89h-9.92l.05,2h-2.05l.05,2h-2.05l.35,13.11h13.93ZM414.7,89h2.07l-1-26.61H401.63l.08,2h-2.08l.08,2h-2.08L398.78,93h14l-.07-2h2.07Z"/></g></g></g></svg>