<svg xmlns="http://www.w3.org/2000/svg" xmlns:xlink="http://www.w3.org/1999/xlink" viewBox="0 0 1458.51 252.43"><defs><style>.cls-1{fill:#232323;}.cls-2{fill:#fff;stroke:#000;stroke-miterlimit:10;}.cls-3{fill:url(#linear-gradient);}</style><linearGradient id="linear-gradient" x1="726.74" y1="222.9" x2="726.74" y2="13.33" gradientUnits="userSpaceOnUse"><stop offset="0" stop-color="#2e3192"/><stop offset="0.16" stop-color="#323494"/><stop offset="0.3" stop-color="#3d3d9a"/><stop offset="0.44" stop-color="#4f4ca3"/><stop offset="0.57" stop-color="#6a62b1"/><stop offset="0.64" stop-color="#7a6fb9"/></linearGradient></defs><g id="Layer_2" data-name="Layer 2"><g id="title"><g id="Layer_4" data-name="Layer 4"><g id="OutlineBG"><polygon points="1416.61 74.06 1404.23 74.07 1414.9 67.68 1396.72 0 1230.87 0.35 1207.51 21.56 1155.23 21.65 1152.91 24.02 1149.01 0.53 1072 0.7 1065.35 9.52 1064.2 0.71 986.25 0.88 986.18 0.99 986.17 0.88 904.67 1.06 905.29 9.48 895.99 33.02 887.3 33.03 885.47 1.1 806.15 1.27 806.15 1.27 726.93 1.44 726.93 12.88 714.68 12.9 714.62 25.45 712.34 25.46 710.43 1.47 382.9 2.18 380.49 19.11 365.16 0.74 225.32 1.04 222.04 16.84 205.03 2.56 61.71 2.87 0 227.46 66.35 249.54 208.49 249.85 210.24 241.19 230.01 249.89 368.17 250.19 369.81 238.62 387.93 250.24 549.95 250.59 560.31 110.49 556.41 103.21 581.22 103.19 574.19 224.66 590.74 250.68 669.22 250.85 673.53 103.14 703.67 103.12 705.14 125.57 726.92 125.56 726.91 222.3 726.94 250.98 805.03 251.15 805.03 251.15 881.83 251.31 898.29 225.19 897.83 217.21 904.15 217.22 906.45 251.37 981.49 251.53 1008.5 226.76 1001.71 158.12 1016.78 158.13 1027.3 251.63 1103.35 251.8 1142.41 228.12 1129.56 142.09 1145.37 128.67 1150.42 159.46 1195.73 159.48 1208.47 150.73 1213.15 175.67 1224.24 175.68 1214.21 181.34 1227.47 252.07 1392.04 252.43 1458.51 230.07 1416.61 74.06"/></g><g id="sides"><polygon points="239.72 44.04 201.4 11.88 197.54 29.41 212.19 41.14 178.23 200.21 159.89 200.19 155.41 220.54 200.31 239.15 204.13 220.21 221.08 220.25 252.32 60.51 238.68 49.22 239.72 44.04"/><polygon points="118.12 64.55 94.04 161.16 142.58 183.84 163.23 93.47 118.12 64.55"/><polygon points="387.49 42.43 360.49 10.07 357.54 29.12 372.3 45.94 363.25 107.08 391.05 133.44 400.97 60.32 387.27 43.98 387.49 42.43"/><polygon points="381.07 133.44 352.47 107.09 350.96 116.95 360.53 125.48 349.43 200.46 379.24 220.53 389.8 142.67 380.92 134.51 381.07 133.44"/><polygon points="327.8 220.86 359.49 239.49 362.19 220.5 330.97 200.43 327.8 220.86"/><polygon points="536.86 63.3 551.56 92.53 555.18 43.56 541.07 11.15 536.86 63.3"/><polygon points="444.26 84.12 465.89 111.99 467.97 92.58 446.69 63.41 444.26 84.12"/><polygon points="524.12 221.22 540.67 239.89 550.12 111.97 535.19 84.05 524.12 221.22"/><polygon points="700.42 63.11 703.12 92.44 703.79 43.33 701.19 10.81 700.42 63.11"/><polygon points="652.95 221.46 659.51 240.15 663.82 92.46 658 63.16 652.95 221.46"/><polygon points="1234.74 9.66 1198.5 42.57 1221.45 164.99 1261.54 140.44 1234.74 9.66"/><polygon points="1357.43 140.47 1309.93 165.06 1314.56 185.95 1362.87 162.9 1357.43 140.47"/><polygon points="1225.36 185.85 1235.77 241.41 1278.38 222.6 1266.13 162.83 1225.36 185.85"/><polygon points="1159.44 30.96 1128.47 62.53 1136.53 113.56 1168.83 85.42 1159.44 30.96"/><polygon points="1153.13 113.56 1158.92 148.78 1193.56 123.1 1186.79 85.41 1153.13 113.56"/><polygon points="1052.31 42.8 1061.06 111.1 1087.19 82.84 1076.99 10 1052.31 42.8"/><polygon points="992.09 10.19 973.6 42.92 981.85 128.77 1001.7 101.77 992.09 10.19"/><polygon points="1001.53 128.77 1003.47 147.44 1025.26 121.74 1023 101.76 1001.53 128.77"/><polygon points="1025.72 147.45 1036.24 240.97 1061.69 222.2 1049.34 121.74 1025.72 147.45"/><polygon points="915.43 10.35 902.51 43.03 906.68 105 920.28 76.4 915.43 10.35"/><polygon points="887.62 171.96 889.63 206.52 902.39 185.18 900.03 148.08 887.62 171.96"/><polygon points="808.99 43.17 814.75 240.49 821.32 221.76 814.59 10.57 808.99 43.17"/><polygon points="913.5 206.55 915.8 240.71 930.97 221.96 928.27 185.21 913.5 206.55"/></g><g id="bottom"><polygon class="cls-1" points="187.04 93.46 143.79 64.52 118.12 64.55 163.23 93.47 187.04 93.46"/><polygon class="cls-1" points="12.15 220.28 67.98 238.86 200.31 239.15 155.41 220.54 12.15 220.28"/><polygon class="cls-1" points="335.83 92.66 304.19 63.57 222.4 63.67 259.97 92.7 335.83 92.66"/><polygon class="cls-1" points="391.05 133.44 363.25 107.08 352.47 107.09 381.07 133.44 391.05 133.44"/><polygon class="cls-1" points="324.38 164.31 290.83 140.16 206.55 140.13 246.37 164.26 324.38 164.31"/><polygon class="cls-1" points="362.19 220.5 379.24 220.53 349.43 200.46 330.97 200.43 362.19 220.5"/><polygon class="cls-1" points="189.86 220.61 232.13 239.22 359.49 239.49 327.8 220.86 189.86 220.61"/><polygon class="cls-1" points="446.69 63.41 467.97 92.58 551.56 92.53 536.86 63.3 446.69 63.41"/><polygon class="cls-1" points="400.67 164.37 486.45 164.44 466.01 140.21 373.28 140.18 400.67 164.37"/><polygon class="cls-1" points="361.79 220.92 390.87 239.56 540.67 239.89 524.12 221.22 361.79 220.92"/><polygon class="cls-1" points="593.51 63.24 551.26 63.29 564.9 92.52 604.06 92.5 593.51 63.24"/><polygon class="cls-1" points="658 63.16 663.82 92.46 703.12 92.44 700.42 63.11 658 63.16"/><polygon class="cls-1" points="584.36 221.33 596.24 240.01 659.51 240.15 652.95 221.46 584.36 221.33"/><polygon class="cls-1" points="1403.28 62.3 1310.13 62.41 1267.51 92.09 1353.65 92.04 1403.28 62.3"/><polygon class="cls-1" points="1357.43 140.47 1261.54 140.44 1221.45 164.99 1309.93 165.06 1357.43 140.47"/><polygon class="cls-1" points="1278.38 222.6 1235.77 241.41 1390.42 241.74 1446.41 222.91 1278.38 222.6"/><polygon class="cls-1" points="1153.13 113.56 1186.79 85.41 1168.83 85.42 1150.14 101.71 1134.13 101.71 1104.27 128.78 1108.64 128.78 1087.77 147.47 1106.96 147.48 1137.28 121.73 1132.49 121.73 1141.99 113.56 1153.13 113.56"/><polygon class="cls-1" points="1193.56 123.1 1158.92 148.78 1192.63 148.79 1230.06 123.09 1193.56 123.1"/><polygon class="cls-1" points="1001.7 101.77 981.85 128.77 1001.53 128.77 1023 101.76 1001.7 101.77"/><polygon class="cls-1" points="1025.26 121.74 1003.47 147.44 1025.72 147.45 1049.34 121.74 1025.26 121.74"/><polygon class="cls-1" points="1036.24 240.97 1100.57 241.11 1131.53 222.33 1061.69 222.2 1036.24 240.97"/><polygon class="cls-1" points="900.03 148.08 883.9 148.07 872.72 171.95 887.62 171.96 900.03 148.08"/><polygon class="cls-1" points="902.39 185.18 889.63 206.52 913.5 206.55 928.27 185.21 902.39 185.18"/><polygon class="cls-1" points="814.75 240.49 876.32 240.62 888.12 221.88 821.32 221.76 814.75 240.49"/><polygon class="cls-1" points="915.8 240.71 977.61 240.84 998.05 222.09 930.97 221.96 915.8 240.71"/><polygon class="cls-1" points="736.92 87.06 712.69 87.08 714.51 114.89 736.94 114.88 736.92 87.06"/><polygon class="cls-1" points="736.93 240.32 799.8 240.45 805.11 221.73 736.91 221.61 736.93 240.32"/></g><path id="bevel_effect" data-name="bevel effect" class="cls-2" d="M197.54,29.41l17.16,0L178.23,200.21l-18.34,0-4.48,20.35-143.26-.26L69.33,12.17l132.07-.29ZM120.69,161.18l23.1-96.66-25.67,0L94,161.16l26.65,0M233.46,10.34,222.4,63.67l81.79-.1-3.6,20.66-82.46.07-11.58,55.83,84.28,0-3.83,22-85-.06-12.14,58.54,137.94.25L331,200.43l18.46,0L361.79,117H351l1.51-9.86h10.78l11.55-78-17.26,0,2.95-19Zm158.12,1.14-18.3,128.7,92.73,0-2.34,22-93.52-.06-8.36,58.73,162.33.3L535.19,84.05l-90.93.07,2.43-20.71,90.17-.11,4.21-52.15Zm163.59-.36-3.91,52.17,42.25,0-9.15,158.09,68.59.12,5-158.29,42.42,0,.77-52.3Zm679.57-1.46,26.8,130.78,95.89,0,5.44,22.42-96.74-.06,12.25,59.77,168,.31L1408.94,83.38l-94,.08-4.86-21,93.15-.11-14.22-53ZM1159.44,31l9.39,54.46h18l6.77,37.69h36.5l-17.89-92.23ZM1077,10l10.19,72.84H1065l-9.54-72.8-63.34.14,9.61,91.58H1023l2.26,20h24.08l12.35,100.46,69.84.13-15-100.6h20.77l-3.15-20h21.66L1140.54,9.87Zm-161.57.35,4.85,66.05-15.44,0-2.29-34.1-24.69,0L876,10.43l-61.44.14,6.73,211.19,66.8.12-4.22-73.81H900l2.36,37.1,25.88,0L931,222l67.09.13L977.11,10.22Zm-178.5.38V22.17l-12.3,0-.06,12.55-11.37,0-.51,52.3h24.23V221.61l68.2.12L799.67,10.6Z"/><path id="fg" class="cls-3" d="M1160.13,35l48-.09,17.12,88.23h-31.73l-6.77-37.69h-18Zm-23.59-21.09-59,.12,9.64,68.85h-2.28l.28,2h-2.28l.28,2H1061l-9.54-72.8-58.92.13,9.19,87.59H1023l2.26,20h24.08l12.35,100.46,65.25.12-14.43-96.59h2.3l-.3-2h2.3l-.3-2h16.14l-2.52-16h2.32l-.32-2h2.32l-.32-2h17ZM1278.38,222.6l162.95.3L1404.94,87.38l-94,.08-4.86-21h2.46l-.46-2h2.46l-.46-2,88.08-.11-13.15-49-149.5.32,26,126.79,95.89,0,5.44,22.42h-2.49l.49,2h-2.49l.49,2-91.92-.06ZM973.11,14.22l-57.39.12,4.56,62.06h-2.15l.15,2h-2.15l.15,2-15.44,0-2.29-34.1-24.69,0L872,14.43l-57.32.13,6.61,207.2,62.57.12-4-69.81H882l-.12-2H884l-.12-2H900l2.36,37.1,25.88,0L931,222l62.7.12Zm-798,186-15.2,0-.44,2h-1.56l-.44,2h-1.56l-3.6,16.35-140.14-.26L68.24,16.16l129.16-.28-3.86,17.53,17.16,0ZM143.79,64.52l-25.67,0-.5,2h-1.5l-.5,2h-1.5L90,165.16l26.65,0,.48-2h1.52l.48-2h1.52ZM391,15.47,373.28,140.18l92.73,0-2.34,22h-1.78l-.22,2h-1.78l-.22,2-90.09-.06-7.79,54.73,158.65.29L531.19,88.05l-90.93.07,2.43-20.71h1.76l.24-2h1.76l.24-2,86.49-.1,3.89-48.16ZM357.79,121H347l1.51-9.86h1.69l.31-2h1.69l.31-2h7.37l11-74-17.26,0,2.95-19-123.86.27L222.4,63.67l81.79-.1-3.6,20.66h-1.65l-.35,2h-1.65l-.35,2-79.29.07-10.75,51.83,84.28,0-3.83,22h-1.65l-.35,2h-1.65l-.35,2-81.83-.06-11.31,54.54,134.56.24L327,204.43h1.69l.31-2h1.69l.31-2,15,0ZM801,221.73,795.67,14.6l-58.74.12v7.45h-2v2h-2v2l-8.32,0,0,8.56h-2v2h-2v2h-7.41l-.47,48.31h24.23V221.61ZM551.26,63.29l42.25,0-9.15,158.09,64.72.12L654,67.16h1.94l.06-2h1.94l.06-2,38.48,0,.71-48.31-142.32.31Z"/></g></g></g></svg>