<svg xmlns="http://www.w3.org/2000/svg" xmlns:xlink="http://www.w3.org/1999/xlink" viewBox="0 0 1109.97 349.35"><defs><style>.cls-1,.cls-3{fill:#fff;stroke:#000;}.cls-1{stroke-linejoin:bevel;}.cls-2{fill:url(#linear-gradient);}.cls-3{stroke-miterlimit:10;}.cls-4{fill:url(#linear-gradient-2);}</style><linearGradient id="linear-gradient" x1="553.45" y1="332.06" x2="553.45" y2="204.28" gradientUnits="userSpaceOnUse"><stop offset="0" stop-color="#0071bc"/><stop offset="0.11" stop-color="#2755a4"/><stop offset="0.23" stop-color="#4b3b8f"/><stop offset="0.36" stop-color="#69267d"/><stop offset="0.49" stop-color="#81156f"/><stop offset="0.64" stop-color="#910965"/><stop offset="0.79" stop-color="#9b025f"/><stop offset="1" stop-color="#9e005d"/></linearGradient><linearGradient id="linear-gradient-2" x1="553.15" y1="175.94" x2="553.15" y2="19.94" gradientUnits="userSpaceOnUse"><stop offset="0" stop-color="#2e3192"/><stop offset="0.16" stop-color="#323494"/><stop offset="0.3" stop-color="#3d3d9a"/><stop offset="0.44" stop-color="#4f4ca3"/><stop offset="0.57" stop-color="#6a62b1"/><stop offset="0.64" stop-color="#7a6fb9"/></linearGradient></defs><g id="Layer_2" data-name="Layer 2"><g id="Whole_Logo" data-name="Whole Logo"><g id="Layer_12" data-name="Layer 12"><polygon points="915.06 346.68 897.62 326.31 895.04 346.65 828.83 346.55 813.05 322.36 810.82 346.53 294.33 345.77 292.08 324.27 276.5 345.75 211.98 345.65 209.45 327.31 192.49 345.62 76.62 345.46 48.37 199.29 3.04 184.21 52.37 4.66 167.51 4.42 172.65 8.73 173.78 3.31 287.49 3.06 288.4 4.16 873.84 2.9 876.45 18.63 908.13 18.57 925.52 2.79 1057.63 2.5 1106.95 186.15 1061.14 201.56 1053.62 242.51 1039.26 242.52 1031.38 286.88 1043.58 297.29 1034.49 346.85 915.06 346.68"/><path d="M1055.72,5l16.48,61.38,31.72,118.14-42.18,14.19-2.8.94-.53,2.89L1051.54,240h-14.37l-.74,4.12L1029.17,285l-.51,2.82,2.18,1.86,10,8.55-8.45,46.09-116.2-.17-13-15.21-7.34-8.57-1.41,11.2-1.59,12.54-62.65-.09L819.06,327l-7.84-12-1.32,14.31L808.54,344l-512-.74-1.33-12.78-1.36-13-7.66,10.56-11,15.15-61.07-.08-1.51-11-1.45-10.46L204,329.49,191.4,343.12,78.68,343,51.1,200.25l-.56-2.87-2.77-.92L6.08,182.59,54.28,7.16,166.6,6.92l1.24,1,6.41,5.38,1.56-7.54,110.51-.24.91,1.1h2.35L871.72,5.4l1.92,11.54.69,4.19h4.25l28.59-.06h1.93l1.43-1.29,16-14.49L1055.72,5m3.83-5-135,.29L907.17,16.07l-28.6.06L876,.39,289.57,1.65,288.66.56,171.74.81l-.69,3.32-2.64-2.22L50.46,2.17,0,185.83,46.19,201.2,74.55,348l119,.17,14.11-15.23,2.11,15.26,68,.1L290.28,331l1.8,17.25,521,.76,1.78-19.29,12.6,19.31,69.77.1,2.14-16.92,14.52,16.95,122.66.17,9.73-53-12.21-10.41,7.27-40.89h14.35l7.62-41.55L1110,187.77,1077,65.09,1059.55,0Z"/><path d="M1055.17,192.51l-45.23-26.88-105.56.15-.3,2.32-2.92-2.32-52.62.08,0,.39-.41-.39-53.21.07-.17,1.86-1.57-1.85-54,.07-.06.77-.48-.77-108.32.16-.35,12.76H622l-2.13-12.76-96.63.14h0l-104.8.15h0l-105.5.15-1.65,1.72-.17-1.72-52,.07-.46.41,0-.41-51.35.08-2.82,2.07-.3-2.07-102.53.15L54.86,193.37,82.81,338l106.41.16,23-24.86h2.84l3.44,24.9,54.16.08L297.51,304l3.58,34.25,110.39.16h0l109.63.16h0l101.4.15.22-12.48h8.75l2.24,12.49,113.47.16h0L804,339l4.2-45.64.62.92-.68,6.78,24.78,38,55.53.08,3.19-25.21h5.26l21.64,25.25,109.72.16,7.18-39.15-14-11.93h2.08l7.23-40.67L1013.92,235h33.45Z"/><polygon points="113.07 228.21 126.82 305.9 159.16 277.4 147.38 204.75 113.07 228.21"/><polygon points="164.72 201.17 184.86 330.85 212.7 300.77 195.46 179.52 164.72 201.17"/><polygon points="223.45 201.11 230.56 254.64 255.81 229.38 249.74 179.44 223.45 201.11"/><polygon points="302.11 179.37 280.13 201.05 287.29 265.61 275.2 280.61 276.4 290.86 264.56 306.04 267.59 330.97 289.45 300.83 288.49 292.19 299.46 277.46 298.47 268.21 309.65 253.64 302.11 179.37"/><polygon points="403.02 306.18 404.68 331.17 416.58 300.95 415.16 277.52 403.02 306.18"/><polygon points="346.15 280.65 348.39 306.12 364.55 277.49 362.62 253.64 346.15 280.65"/><polygon points="385.66 254.64 387.52 280.67 400.93 253.64 399.33 229.31 385.66 254.64"/><polygon points="358.66 204.55 341.52 228.1 343.86 254.64 360.66 229.33 358.66 204.55"/><polygon points="410.74 204.5 409.21 179.21 396.06 200.93 397.85 228.07 410.74 204.5"/><polygon points="458.77 280.7 460.96 331.25 468.77 300.99 466.89 253.64 458.77 280.7"/><polygon points="513.91 267.75 515.27 331.33 519.11 301.04 517.95 241.5 513.91 267.75"/><polygon points="499.63 254.64 499.98 267.75 505.06 241.51 504.76 229.26 499.63 254.64"/><polygon points="464.94 204.45 456.49 228.04 457.64 254.64 465.92 229.28 464.94 204.45"/><polygon points="516.73 179.06 512.49 200.82 513.64 254.64 517.71 229.25 516.73 179.06"/><polygon points="913.15 178.5 896.95 301.37 923.12 331.92 942.08 200.38 913.15 178.5"/><polygon points="829.86 280.89 817.52 263.77 823.76 200.5 804.01 178.65 797.25 253.64 808.63 270.32 807.93 277.69 819.11 294.47 818.42 301.3 838.32 331.8 841.09 306.61 828.98 289.36 829.86 280.89"/><polygon points="851.91 229.09 875.18 254.65 881.74 200.45 857.5 178.58 851.91 229.09"/><polygon points="740.03 301.23 753.68 331.67 763.57 200.56 748.48 178.73 740.03 301.23"/><polygon points="687.31 301.19 696.77 331.59 699.43 280.83 689.59 253.64 687.31 301.19"/><polygon points="690.76 229.17 700.8 254.64 702.2 227.92 691.95 204.24 690.76 229.17"/><polygon points="636.64 301.14 642.09 331.51 646.03 200.68 640.02 178.89 636.64 301.14"/><polygon points="584.28 277.59 585.6 306.36 586.16 227.97 584.76 204.34 584.28 277.59"/><polygon points="126.82 305.9 140.35 305.92 171.7 277.41 159.16 277.4 126.82 305.9"/><polygon points="195.46 179.52 104.24 179.65 66.04 201.27 164.72 201.17 195.46 179.52"/><polygon points="230.56 254.64 244.43 254.64 268.65 229.37 255.81 229.38 230.56 254.64"/><polygon points="210.53 179.5 181.03 201.15 223.45 201.11 249.74 179.44 210.53 179.5"/><polygon points="262.83 179.42 237.62 201.09 280.13 201.05 302.11 179.37 262.83 179.42"/><polygon points="348.39 306.12 403.02 306.18 415.16 277.52 364.55 277.49 348.39 306.12"/><polygon points="399.33 229.31 360.66 229.33 343.86 254.64 385.66 254.64 399.33 229.31"/><polygon points="409.21 179.21 317.25 179.34 296.51 201.03 396.06 200.93 409.21 179.21"/><polygon points="499.98 267.75 513.91 267.75 517.95 241.5 505.06 241.51 499.98 267.75"/><polygon points="457.64 254.64 471.63 254.64 478.87 229.27 465.92 229.28 457.64 254.64"/><polygon points="516.73 179.06 424.4 179.19 412.5 200.92 512.49 200.82 516.73 179.06"/><polygon points="938.8 277.75 968.63 306.73 1024.55 306.79 990.52 277.77 938.8 277.75"/><polygon points="977.01 254.65 1019.82 254.65 985.5 229.03 945.97 229.05 977.01 254.65"/><polygon points="1044.08 200.28 1007.2 178.37 913.15 178.5 942.08 200.38 1044.08 200.28"/><polygon points="838.78 229.1 860.98 254.65 875.18 254.65 851.91 229.09 838.78 229.1"/><polygon points="844.11 178.6 804.01 178.65 823.76 200.5 867.22 200.46 844.11 178.6"/><polygon points="857.5 178.58 881.74 200.45 925.3 200.4 897.68 178.52 857.5 178.58"/><polygon points="748.48 178.73 763.57 200.56 806.94 200.52 788.5 178.68 748.48 178.73"/><polygon points="716.15 241.46 728.2 267.81 742.26 267.81 729.15 241.45 716.15 241.46"/><polygon points="677.72 229.18 686.69 254.64 700.8 254.64 690.76 229.17 677.72 229.18"/><polygon points="640.02 178.89 646.03 200.68 746.9 200.58 733.11 178.75 640.02 178.89"/><polygon points="571.53 277.59 571.83 306.34 585.6 306.36 584.28 277.59 571.53 277.59"/><polygon points="613.56 191.68 611.43 178.93 531.99 179.04 529.02 200.8 612.65 200.72 614.82 214.41 629.12 214.4 624.43 191.67 613.56 191.68"/><path class="cls-1" d="M66,201.27l98.68-.1,20.14,129.68-93.8-.14Zm74.31,104.65L127,228.2H113.07l13.75,77.69,13.53,0m97.27-104.83,6.81,53.55H230.55l-7.1-53.53-42.42,0,11.83,79.42h13.71L210.21,306h13.58l3.44,24.91,40.36.06-3-24.93h13.61l-3-25.44H289l-8.82-79.57Zm58.89-.06L310.1,331l94.57.14-1.65-25-54.63-.06-2.24-25.47,41.37,0-1.86-26h-41.8l-2.34-26.54,56.33,0-1.79-27.14Zm217.13,53.61h-14l.35,13.11h13.94l1.35,63.58-40.74-.06-1.91-50.56H458.77L461,331.25l-40.66-.06-7.79-130.27,100-.1Zm-42,0-1-26.61H456.49l1.15,26.6h14m470.45-54.25-19,131.53,96.79.14,4.64-25.27-55.92-.06L972.77,281l42.37,0,4.68-26.33H977l4.32-26.87,57.71,0,5-27.47Zm-60.35.06-6.55,54.19H861l6.24-54.18-43.46,0-7.93,80.38h14l-2.67,25.7,13.89,0-2.76,25.19,41.3.06,3.19-25.21h13.93l3.4-25.73h14.08L925.3,200.4Zm-118.16.11-9.89,131.11,41.18.06,12.08-131.21Zm-20.4,54.08H729l-.84,13.17h14.07l-4.41,63.84-41.09-.06,2.66-50.76h-14l-2.37,50.75-41-.06L646,200.68l100.87-.1Zm-42.37,0,1.4-26.72H687.94l-1.25,26.72H700.8m-86-40.23h14.3L626.63,319H612.91l-.22,12.48L531,331.35,529,200.8l86.05-.09Zm-29.22,92,.56-78.38H572l-.13,78.36,13.77,0"/><path class="cls-2" d="M910.77,280.93H900.14l-.27,2h-1.73l-.27,2h-1.73l-2.87,21.73H882.81l-.25,2h-1.75l-.25,2h-1.75l-2.68,21.2-37.81-.05,2.76-25.19-13.89,0,2.67-25.7h-14l7.53-76.38,39.86,0L857,258.64h14.2l.24-2h1.76l.24-2h1.76l6.07-50.2,40,0ZM753.68,331.67l37.55.06,11.71-127.21-39.67,0Zm286.4-127.39-98.57.1L923.12,331.92l93.53.14,3.9-21.27-55.92-.06L968.77,285h1.68l.32-2h1.68l.32-2,39.08,0,4-22.33H973l4.32-26.87H979l.32-2H981l.32-2,54.44,0Zm-297.18.3-3.45,50.06H729l-.13,2H727l-.13,2H725l-.84,13.17h14.06l-4.12,59.84-37.37-.06,2.66-50.76h-14l-.09,2h-1.91l-.09,2h-1.91l-2.19,46.75-37.19-.06,3.82-126.83Zm-40.7,23.34H687.94l-.09,2h-1.91l-.09,2h-1.91l-1.25,26.72H696.8l.1-2h1.9l.1-2h1.9ZM66.82,205.26l93.9-.09,19.51,125.67-89.17-.13Zm44.6,27h-2.35l13.75,77.69,13.53,0-.35-2h2.35l-.35-2h2.35L127,228.2H113.07l.35,2h-2.35Zm280.64-27.28-95.13.1L310.1,331l90.31.13-1.39-21-54.63-.06-2.24-25.47h2.18l-.18-2h2.18l-.18-2,37.09,0-1.58-22h-41.8l-2.34-26.54h2.18l-.18-2h2.18l-.18-2,52.07,0ZM622.73,319h-9.82l0,2h-2l0,2h-2l-.15,8.47L531,331.35,529.08,204.8l82-.09-.25,13.7h14.3Zm-36.57-91H572v2h-2v2h-2l-.13,78.36,13.77,0v-2h2v-2h2Zm-310-22.93-38,0,6.3,49.55h-2.26l.26,2h-2.26l.26,2H226.56l-7.11-53.53-37.82,0,11.23,75.42h13.71L210.21,306h13.58l3.44,24.91,35.87,0L260.56,310h2.24l-.24-2h2.24l-.24-2h9.14l-2.5-21.44h2.24l-.24-2h2.24l-.24-2h9.31ZM511.18,331.32l-36.65-.05-1.91-50.56H458.77l.09,2h-2.09l.09,2h-2.09l2,46.53-36.49-.05-7.56-126.28,95.75-.09,1.06,49.82h-9.92l.05,2h-2.05l.05,2h-2.05l.35,13.11h13.93Zm-41.62-76.68h2.07l-1-26.61H456.49l.09,2h-2.09l.09,2h-2.09l1.15,26.6h14l-.07-2h2.07Z"/><g id="OutlineBG"><polygon points="1066.69 65.15 1057.47 65.16 1065.41 60.4 1051.88 10.02 928.42 10.28 911.04 26.07 872.12 26.14 870.39 27.9 867.49 10.41 810.16 10.54 805.21 17.11 804.35 10.55 746.32 10.67 746.28 10.75 746.27 10.67 685.6 10.8 686.06 17.08 679.13 34.59 672.67 34.6 671.31 10.83 612.26 10.96 612.26 10.96 553.29 11.09 553.28 19.6 544.17 19.62 544.12 28.96 542.42 28.97 541 11.11 297.19 11.64 295.39 24.24 283.99 10.57 179.88 10.79 177.45 22.55 164.78 11.92 58.09 12.15 12.15 179.34 61.54 195.77 167.35 196 168.66 189.56 183.38 196.04 286.22 196.26 287.45 187.65 300.94 196.3 421.55 196.56 429.25 92.27 426.35 86.84 444.82 86.83 439.58 177.25 451.91 196.63 510.33 196.75 513.54 86.79 535.97 86.78 537.07 103.49 553.28 103.49 553.27 175.5 553.29 196.85 611.43 196.97 611.43 196.97 668.59 197.1 680.85 177.65 680.51 171.71 685.21 171.72 686.92 197.14 742.79 197.26 762.89 178.82 757.84 127.72 769.05 127.73 776.88 197.33 833.5 197.46 862.57 179.83 853.01 115.79 864.77 105.8 868.54 128.72 902.26 128.73 911.75 122.22 915.23 140.78 923.49 140.79 916.02 145.01 925.89 197.66 1048.4 197.93 1097.88 181.28 1066.69 65.15"/></g><g id="sides"><polygon points="190.6 42.8 162.08 18.86 159.2 31.91 170.11 40.64 144.83 159.06 131.18 159.04 127.84 174.19 161.27 188.04 164.11 173.95 176.73 173.97 199.99 55.06 189.83 46.65 190.6 42.8"/><polygon points="100.09 58.07 82.16 129.99 118.3 146.87 133.66 79.6 100.09 58.07"/><polygon points="300.61 41.6 280.51 17.51 278.31 31.69 289.3 44.22 282.56 89.73 303.26 109.35 310.64 54.92 300.44 42.75 300.61 41.6"/><polygon points="295.82 109.35 274.53 89.73 273.42 97.08 280.53 103.43 272.27 159.24 294.46 174.18 302.33 116.22 295.71 110.15 295.82 109.35"/><polygon points="256.17 174.43 279.76 188.3 281.77 174.16 258.53 159.22 256.17 174.43"/><polygon points="411.8 57.14 422.74 78.89 425.43 42.44 414.93 18.32 411.8 57.14"/><polygon points="342.87 72.64 358.96 93.38 360.51 78.93 344.67 57.22 342.87 72.64"/><polygon points="402.31 174.69 414.63 188.59 421.67 93.37 410.55 72.59 402.31 174.69"/><polygon points="533.55 57 535.56 78.83 536.06 42.27 534.13 18.06 533.55 57"/><polygon points="498.22 174.87 503.1 188.78 506.31 78.84 501.98 57.04 498.22 174.87"/><polygon points="931.3 17.21 904.32 41.71 921.41 132.84 951.25 114.56 931.3 17.21"/><polygon points="1022.64 114.59 987.28 132.89 990.72 148.44 1026.68 131.28 1022.64 114.59"/><polygon points="924.32 148.36 932.07 189.72 963.79 175.72 954.67 131.23 924.32 148.36"/><polygon points="875.25 33.07 852.2 56.56 858.19 94.56 882.24 73.61 875.25 33.07"/><polygon points="870.55 94.55 874.86 120.77 900.65 101.65 895.61 73.6 870.55 94.55"/><polygon points="795.5 41.88 802.01 92.72 821.47 71.68 813.88 17.46 795.5 41.88"/><polygon points="750.67 17.6 736.91 41.97 743.05 105.88 757.83 85.78 750.67 17.6"/><polygon points="757.7 105.88 759.14 119.77 775.37 100.64 773.68 85.77 757.7 105.88"/><polygon points="775.71 119.78 783.54 189.4 802.49 175.43 793.29 100.64 775.71 119.78"/><polygon points="693.61 17.72 683.99 42.05 687.09 88.18 697.22 66.89 693.61 17.72"/><polygon points="672.91 138.03 674.4 163.75 683.9 147.87 682.15 120.25 672.91 138.03"/><polygon points="614.37 42.15 618.66 189.04 623.55 175.1 618.54 17.88 614.37 42.15"/><polygon points="692.17 163.78 693.88 189.2 705.17 175.25 703.16 147.89 692.17 163.78"/></g><g id="bottom"><polygon points="151.39 79.59 119.19 58.05 100.09 58.07 133.66 79.6 151.39 79.59"/><polygon points="21.2 174 62.76 187.82 161.27 188.04 127.84 174.19 21.2 174"/><polygon points="262.15 78.99 238.6 57.34 177.71 57.41 205.68 79.03 262.15 78.99"/><polygon points="303.26 109.35 282.56 89.73 274.53 89.73 295.82 109.35 303.26 109.35"/><polygon points="253.63 132.33 228.65 114.35 165.91 114.33 195.56 132.29 253.63 132.33"/><polygon points="281.77 174.16 294.46 174.18 272.27 159.24 258.53 159.22 281.77 174.16"/><polygon points="153.49 174.24 184.95 188.09 279.76 188.3 256.17 174.43 153.49 174.24"/><polygon points="344.67 57.22 360.51 78.93 422.74 78.89 411.8 57.14 344.67 57.22"/><polygon points="310.41 132.38 374.27 132.43 359.06 114.39 290.02 114.37 310.41 132.38"/><polygon points="281.48 174.47 303.12 188.35 414.63 188.59 402.31 174.69 281.48 174.47"/><polygon points="453.96 57.09 422.52 57.13 432.67 78.89 461.82 78.87 453.96 57.09"/><polygon points="501.98 57.04 506.31 78.84 535.56 78.83 533.55 57 501.98 57.04"/><polygon points="447.15 174.78 456 188.68 503.1 188.78 498.22 174.87 447.15 174.78"/><polygon points="1056.77 56.39 987.42 56.47 955.7 78.57 1019.82 78.53 1056.77 56.39"/><polygon points="1022.64 114.59 951.25 114.56 921.41 132.84 987.28 132.89 1022.64 114.59"/><polygon points="963.79 175.72 932.07 189.72 1047.19 189.97 1088.87 175.95 963.79 175.72"/><polygon points="870.55 94.55 895.61 73.6 882.24 73.61 868.32 85.73 856.41 85.73 834.18 105.88 837.43 105.88 821.9 119.8 836.18 119.8 858.76 100.64 855.19 100.64 862.26 94.56 870.55 94.55"/><polygon points="900.65 101.65 874.86 120.77 899.96 120.78 927.82 101.65 900.65 101.65"/><polygon points="757.83 85.78 743.05 105.88 757.7 105.88 773.68 85.77 757.83 85.78"/><polygon points="775.37 100.64 759.14 119.77 775.71 119.78 793.29 100.64 775.37 100.64"/><polygon points="783.54 189.4 831.42 189.5 854.48 175.52 802.49 175.43 783.54 189.4"/><polygon points="682.15 120.25 670.14 120.24 661.82 138.01 672.91 138.03 682.15 120.25"/><polygon points="683.9 147.87 674.4 163.75 692.17 163.78 703.16 147.89 683.9 147.87"/><polygon points="618.66 189.04 664.49 189.14 673.28 175.19 623.55 175.1 618.66 189.04"/><polygon points="693.88 189.2 739.9 189.3 755.11 175.34 705.17 175.25 693.88 189.2"/><polygon points="560.73 74.82 542.69 74.84 544.04 95.54 560.74 95.53 560.73 74.82"/><polygon points="560.73 188.91 607.53 189.01 611.48 175.08 560.72 174.98 560.73 188.91"/></g><path id="bevel_effect" data-name="bevel effect" class="cls-3" d="M159.2,31.91l12.78,0L144.83,159.06l-13.65,0-3.34,15.15L21.2,174,63.77,19.07l98.31-.21ZM102,130l17.19-71.95-19.1,0L82.16,130H102M186,17.72l-8.24,39.69,60.89-.07-2.69,15.38-61.38,0-8.62,41.56,62.74,0-2.85,16.36-63.28-.05-9,43.58,102.68.19,2.36-15.21,13.74,0,9.2-62.16h-8.05l1.11-7.35h8l8.6-58.06-12.85,0,2.2-14.18Zm117.7.84L290,114.37l69,0-1.74,16.41-69.63-.05-6.21,43.72,120.83.22,8.24-102.1-67.68,0,1.8-15.42,67.13-.08,3.13-38.82Zm121.77-.26-2.9,38.83,31.45,0-6.82,117.69,51.07.09L502,57l31.57,0,.58-38.94ZM931.3,17.21l20,97.35,71.39,0,4,16.69-72-.05,9.12,44.49,125.08.23L1061,72.09l-69.94,0-3.62-15.67,69.35-.08L1046.18,17Zm-56,15.86,7,40.54h13.37l5,28.05h27.17L914.51,33ZM813.88,17.46l7.59,54.22H804.93L797.82,17.5l-47.15.1,7.16,68.18h15.85l1.69,14.87h17.92l9.2,74.79,52,.09-11.19-74.88h15.47l-2.35-14.91h16.13L861.18,17.36Zm-120.27.26,3.61,49.17H685.73L684,41.52l-18.38,0-1.36-23.77-45.74.1,5,157.22,49.73.09-3.14-54.95h12l1.75,27.62,19.26,0,2,27.36,49.94.09L739.53,17.62ZM560.73,18v8.51l-9.15,0-.05,9.35h-8.46l-.38,38.94,18,0V175l50.76.1L607.43,17.91Z"/><g id="fg"><path class="cls-4" d="M875.76,36,911.53,36l12.74,65.67H900.65l-5-28.05H882.24ZM858.2,20.34l-43.91.09,7.18,51.25h-1.7l.21,1.49h-1.7l.21,1.49H802l-7.11-54.19L751,20.57l6.85,65.21h15.85l1.69,14.87h17.92l9.2,74.79,48.56.08-10.74-71.9H842l-.23-1.48h1.71l-.22-1.49h12l-1.88-11.93h1.73l-.24-1.49h1.72l-.23-1.49h12.65ZM963.79,175.72l121.3.22L1058,75.07l-69.94.05-3.62-15.67h1.83L985.94,58h1.83l-.35-1.49L1053,56.4l-9.79-36.46-111.29.24,19.34,94.38,71.39,0,4,16.69h-1.85l.37,1.49h-1.86l.37,1.49-68.43,0ZM736.55,20.6l-42.72.09,3.39,46.2h-1.6l.11,1.49h-1.6l.11,1.49H682.75L681,44.5l-18.38,0L661.3,20.76l-42.67.09,4.92,154.25,46.58.08-3-52h1.57l-.08-1.49h1.57l-.08-1.49h12l1.75,27.62,19.26,0,2,27.36,46.67.08ZM142.49,159.05H131.18l-.33,1.49h-1.16l-.33,1.5H128.2l-2.68,12.18L21.2,174,63,22.05l96.15-.21-2.87,13.05,12.77,0Zm-23.3-101-19.1,0-.37,1.48H98.6L98.23,61H97.11L79.18,133,99,133l.36-1.49h1.13l.35-1.49H102Zm184-36.52L290,114.37l69,0-1.74,16.41H356l-.16,1.49H354.5l-.16,1.49-67.07-.05-5.79,40.74,118.1.22,8-99.12-67.68.05,1.8-15.42H343l.17-1.48h1.32l.17-1.49,64.39-.08L412,21.3ZM278.5,100.05h-8.06l1.12-7.35h1.26l.23-1.49h1.26l.22-1.49H280l8.16-55.08-12.85,0,2.2-14.18-92.2.2-7.62,36.72,60.89-.07-2.69,15.38h-1.22l-.26,1.49H233.2l-.26,1.49-59,0-8,38.59,62.74,0-2.85,16.36h-1.23l-.26,1.48h-1.23l-.26,1.49-60.91,0-8.42,40.6,100.17.18,1.89-12.22h1.26l.23-1.49h1.26l.23-1.49,11.21,0Zm329.93,75-4-154.19-43.73.1v5.54h-1.49V28h-1.49V29.5h-6.19l0,6.38h-1.48v1.49h-1.48v1.48H543l-.35,36,18,0V175ZM422.52,57.13l31.45,0-6.82,117.69,48.19.08L499,60h1.44l.05-1.49h1.44L502,57l28.64,0,.53-36-105.95.23Z"/></g></g></g></g></svg>